<?xml version="1.0" encoding="iso-8859-1"?>
<!-- Generator: Adobe Illustrator 19.0.0, SVG Export Plug-In . SVG Version: 6.00 Build 0)  -->
<svg version="1.1" id="Capa_1" xmlns="http://www.w3.org/2000/svg" xmlns:xlink="http://www.w3.org/1999/xlink" x="0px" y="0px"
	 viewBox="0 0 511.999 511.999" style="enable-background:new 0 0 511.999 511.999;" xml:space="preserve">
<g>
	<path style="fill:#E7ECED;" d="M111.817,379.586l10.425,118.298c0.759,8.007,7.486,14.115,15.519,14.115h236.465
		c8.042,0,14.76-6.109,15.528-14.115l10.425-118.298H111.817z"/>
	<path style="fill:#E7ECED;" d="M414.896,79.448H97.101l22.687-69.332C122.075,4.034,127.892,0,134.389,0h243.209
		c6.497,0,12.323,4.034,14.601,10.116L414.896,79.448z"/>
	<polygon style="fill:#E7ECED;" points="414.471,247.172 423.723,132.414 88.274,132.414 97.525,247.172 	"/>
</g>
<rect x="52.964" y="70.62" style="fill:#AFB6BB;" width="406.07" height="70.62"/>
<path style="fill:#25AE88;" d="M430.335,375.322l9.498-121.15c0.671-8.483-4.829-15.828-11.847-15.828H84.01
	c-7.018,0-12.518,7.345-11.855,15.828l9.498,121.15c0.591,7.424,5.72,13.091,11.864,13.091h324.97
	C424.624,388.414,429.751,382.746,430.335,375.322z"/>
<ellipse transform="matrix(-0.7071 0.7071 -0.7071 -0.7071 651.0843 357.0856)" style="fill:#6C342A;" cx="251.587" cy="313.387" rx="43.864" ry="35.09"/>
<path style="fill:#4F221D;" d="M249.757,302.724l-34.322,34.322c1.351,2.657,2.957,5.182,5.129,7.353s4.696,3.778,7.353,5.129
	l34.322-34.322c3.452-3.452,3.452-9.031,0-12.482C258.797,299.273,253.2,299.273,249.757,302.724z"/>
<g>
</g>
<g>
</g>
<g>
</g>
<g>
</g>
<g>
</g>
<g>
</g>
<g>
</g>
<g>
</g>
<g>
</g>
<g>
</g>
<g>
</g>
<g>
</g>
<g>
</g>
<g>
</g>
<g>
</g>
</svg>
